<svg width="40" height="40" viewBox="0 0 40 40" fill="none" xmlns="http://www.w3.org/2000/svg">
<path d="M20 0C8.95431 0 0 8.95431 0 20C0 31.0457 8.95431 40 20 40C31.0457 40 40 31.0457 40 20C39.9858 8.96021 31.0398 0.014157 20 0ZM21 37H20.858C20.858 37 20.4738 37 20 37C19.5262 37 19.142 37 19.142 37C9.73391 36.5508 3.44916 30.2661 3 20.858C3 20.858 3 20.4738 3 20C3 19.5262 3 19.142 3 19.142C3.44916 9.73391 9.73391 3.44916 19.142 3C19.142 3 19.5262 3 20 3C20.4738 3 20.858 3 20.858 3C30.2661 3.44916 36.5508 9.59191 37 19C37 19 37 19.5262 37 20C37 20.4738 37 20.858 37 20.858C36.5505 30.2692 30.4114 36.5551 21 37Z" fill="#956D84"/>
<path d="M29.0505 27.9795L20.8566 19.6483V10.9911C20.8566 10.5172 20.4725 10.1331 19.9986 10.1331C19.5248 10.1331 19.1406 10.5172 19.1406 10.9911V20.0001C19.1416 20.2252 19.2309 20.4409 19.3894 20.6007L27.8236 29.1806C28.1553 29.5194 28.6988 29.5252 29.0376 29.1935C29.3764 28.8618 29.3822 28.3183 29.0505 27.9795Z" fill="#956D84"/>
</svg>
