<svg width="34" height="51" viewBox="0 0 34 51" fill="none" xmlns="http://www.w3.org/2000/svg">
<path d="M17 0.875488C7.62623 0.875488 0 8.40142 0 17.652C0 21.3694 2.2177 27.0228 6.97928 35.4435C10.2285 41.1893 13.4627 46.0425 13.5992 46.2469L15.9368 49.7436C16.1725 50.0963 16.5718 50.3085 17 50.3085C17.4282 50.3085 17.8275 50.0963 18.0632 49.7436L20.4007 46.2471C20.5359 46.045 23.7465 41.2337 27.0207 35.4435C31.7823 27.0232 34 21.3698 34 17.652C34 8.40142 26.3738 0.875488 17 0.875488ZM24.7963 34.2184C21.5677 39.9277 18.4077 44.6634 18.2745 44.8624L17 46.7689L15.7259 44.8629C15.592 44.6623 12.4078 39.8841 9.2037 34.2184C4.78695 26.4074 2.54744 20.8336 2.54744 17.652C2.54744 9.78763 9.03078 3.38946 17 3.38946C24.9692 3.38946 31.4526 9.78763 31.4526 17.652C31.4526 20.834 29.2131 26.4076 24.7963 34.2184Z" fill="#956D84"/>
<path d="M17.0037 8.24524C11.8064 8.24524 7.57812 12.4181 7.57812 17.547C7.57812 22.6759 11.8064 26.8488 17.0037 26.8488C22.201 26.8488 26.4292 22.6759 26.4292 17.547C26.4292 12.4181 22.201 8.24524 17.0037 8.24524ZM17.0037 24.3348C13.211 24.3348 10.1256 21.2898 10.1256 17.547C10.1256 13.8042 13.211 10.7592 17.0037 10.7592C20.7964 10.7592 23.8818 13.8042 23.8818 17.547C23.8818 21.2898 20.7964 24.3348 17.0037 24.3348Z" fill="#956D84"/>
</svg>
