<svg width="40" height="40" viewBox="0 0 40 40" fill="none" xmlns="http://www.w3.org/2000/svg">
<path d="M39.2838 31.1772L31.2825 23.2811C30.3274 22.3386 28.7736 22.3386 27.8183 23.2811L25.7377 25.3344C25.0858 25.9778 24.8797 26.8964 25.1177 27.7146L24.3327 28.4893C24.3325 28.4896 24.3323 28.4897 24.3321 28.49C23.7746 29.0408 20.3026 28.1955 16.1057 24.0538C11.9095 19.9128 11.0528 16.4869 11.6103 15.9357C11.6103 15.9356 11.6104 15.9356 11.6104 15.9356L12.3962 15.1602C12.618 15.2231 12.8469 15.2552 13.0759 15.2552C13.7032 15.2552 14.3304 15.0197 14.808 14.5484L16.8887 12.4951C17.8438 11.5526 17.8438 10.0192 16.8887 9.07655L8.88743 1.18031C8.42485 0.723804 7.8097 0.472412 7.15547 0.472412C6.50108 0.472412 5.88616 0.723961 5.4235 1.18031L3.34269 3.23378C2.69078 3.87714 2.48469 4.79581 2.72276 5.61398C2.72276 5.61398 2.05728 6.27701 2.02418 6.31888C-0.189259 8.74692 -0.604544 12.5697 0.86287 17.1401C2.29982 21.6152 5.39751 26.3558 9.58545 30.4885C13.7732 34.6213 18.577 37.6783 23.1116 39.0965C24.9332 39.6661 26.6373 39.9484 28.1848 39.9484C30.7221 39.9484 32.8375 39.189 34.3539 37.6926L34.7904 37.2618C35.009 37.3238 35.2372 37.3572 35.4709 37.3572C36.1253 37.3572 36.7404 37.1057 37.2029 36.6493L39.2837 34.5959C40.2388 33.6533 40.2388 32.1198 39.2838 31.1772ZM7.15547 2.88952L15.1568 10.7858L13.0773 12.8403C13.0773 12.8403 13.0769 12.8399 13.0762 12.8392L13.0463 12.8096L9.07549 8.89104L5.07474 4.94299L7.15547 2.88952ZM32.622 35.9833C32.6218 35.9835 32.6217 35.9836 32.6216 35.9837C30.8595 37.7224 27.7449 38.0096 23.8516 36.792C19.6843 35.4888 15.2329 32.6431 11.3176 28.7791C7.40223 24.9152 4.5186 20.5225 3.1981 16.4098C1.96429 12.5675 2.25531 9.49378 4.01758 7.75458L4.01774 7.75442L4.23866 7.5364L10.4482 13.6642L9.87862 14.2263C9.87823 14.2267 9.87791 14.2272 9.87743 14.2276C7.51787 16.5591 10.353 21.7951 14.3739 25.7632C17.3833 28.7331 21.1126 31.0476 23.789 31.0476C24.689 31.0476 25.4699 30.7859 26.0643 30.1993C26.0645 30.199 26.0647 30.1989 26.0649 30.1986L26.6338 29.6372L32.8433 35.7651L32.622 35.9833ZM35.4711 34.9401L27.4697 27.0438L29.5504 24.9905L37.5517 32.8866C37.5517 32.8866 35.4718 34.9408 35.4711 34.9401Z" fill="#956D84"/>
</svg>
