<svg width="21" height="19" viewBox="0 0 21 19" fill="none" xmlns="http://www.w3.org/2000/svg">
    <path d="M10.5 19C10.201 19 9.9128 18.8899 9.68818 18.6898C8.83983 17.9354 8.02192 17.2265 7.3003 16.6011L7.29662 16.5979C5.18095 14.7644 3.35399 13.181 2.08282 11.6212C0.661858 9.87752 0 8.22423 0 6.41811C0 4.66332 0.591682 3.04441 1.66594 1.8594C2.75301 0.660369 4.24464 0 5.86652 0C7.07872 0 8.18887 0.389737 9.16603 1.15829C9.65918 1.54624 10.1062 2.02103 10.5 2.57484C10.894 2.02103 11.3408 1.54624 11.8341 1.15829C12.8113 0.389737 13.9214 0 15.1336 0C16.7554 0 18.2471 0.660369 19.3342 1.8594C20.4085 3.04441 21 4.66332 21 6.41811C21 8.22423 20.3383 9.87752 18.9173 11.6211C17.6462 13.181 15.8194 14.7642 13.704 16.5975C12.9811 17.2239 12.1619 17.9339 11.3117 18.6901C11.0872 18.8899 10.7988 19 10.5 19V19ZM5.86652 1.251C4.59231 1.251 3.42176 1.76815 2.57021 2.7073C1.70599 3.66063 1.22999 4.97843 1.22999 6.41811C1.22999 7.93714 1.78514 9.29568 3.02987 10.823C4.23294 12.2994 6.02241 13.8502 8.09434 15.6459L8.09818 15.6491C8.82253 16.2769 9.64364 16.9886 10.4982 17.7485C11.358 16.9871 12.1804 16.2743 12.9061 15.6455C14.9779 13.8498 16.7672 12.2994 17.9703 10.823C19.2149 9.29568 19.77 7.93714 19.77 6.41811C19.77 4.97843 19.294 3.66063 18.4298 2.7073C17.5784 1.76815 16.4077 1.251 15.1336 1.251C14.2002 1.251 13.3432 1.55276 12.5865 2.14779C11.9122 2.6783 11.4424 3.34893 11.167 3.81818C11.0254 4.05949 10.7761 4.20352 10.5 4.20352C10.2239 4.20352 9.97465 4.05949 9.83302 3.81818C9.55776 3.34893 9.08801 2.6783 8.41349 2.14779C7.65678 1.55276 6.79978 1.251 5.86652 1.251V1.251Z"
          fill="#956D84"/>
</svg>
