<svg width="33" height="25" viewBox="0 0 33 25" fill="none" xmlns="http://www.w3.org/2000/svg">
<path d="M10.6322 20.3342H10.6338L10.6375 20.334H28.166C28.5975 20.334 28.977 20.0477 29.0956 19.6328L32.9627 6.09765C33.0461 5.80585 32.9877 5.49214 32.8051 5.24994C32.6223 5.00774 32.3366 4.86523 32.0332 4.86523H8.40257L7.71146 1.75512C7.61302 1.31276 7.22076 0.998047 6.76758 0.998047H0.966797C0.432793 0.998047 0 1.43084 0 1.96484C0 2.49885 0.432793 2.93164 0.966797 2.93164H5.99213C6.11449 3.48277 9.29938 17.815 9.48267 18.6396C8.45519 19.0862 7.73438 20.1107 7.73438 21.3008C7.73438 22.9 9.03552 24.2012 10.6348 24.2012H28.166C28.7 24.2012 29.1328 23.7684 29.1328 23.2344C29.1328 22.7004 28.7 22.2676 28.166 22.2676H10.6348C10.1018 22.2676 9.66797 21.8338 9.66797 21.3008C9.66797 20.7685 10.1003 20.3355 10.6322 20.3342ZM30.7514 6.79883L27.4366 18.4004H11.4102L8.83209 6.79883H30.7514Z" fill="#956D84"/>
</svg>
